<?xml version="1.0" encoding="iso-8859-1"?>
<!-- Uploaded to: SVG Repo, www.svgrepo.com, Generator: SVG Repo Mixer Tools -->
<svg fill="#000000" height="800px" width="800px" version="1.1" id="Layer_1" xmlns="http://www.w3.org/2000/svg" xmlns:xlink="http://www.w3.org/1999/xlink" 
	 viewBox="0 0 512 512" xml:space="preserve">
<g>
	<g>
		<g>
			<path d="M486.4,443.733c4.719,0,8.533-3.823,8.533-8.533V8.533c0-4.71-3.814-8.533-8.533-8.533s-8.533,3.823-8.533,8.533V435.2
				C477.867,439.91,481.681,443.733,486.4,443.733z"/>
			<path d="M486.4,460.8H59.733c-4.71,0-8.533,3.823-8.533,8.533s3.823,8.533,8.533,8.533H486.4c6.878,0,8.431,4.693,8.533,8.533
				v8.533H17.067v-8.431c0.102-3.942,1.664-8.636,8.533-8.636c4.71,0,8.533-3.823,8.533-8.533V8.533C34.133,3.823,30.31,0,25.6,0
				c-4.71,0-8.533,3.823-8.533,8.533V462.02C4.702,465.835,0,477.85,0,486.4v17.067C0,508.177,3.823,512,8.533,512h494.933
				c4.719,0,8.533-3.823,8.533-8.533V486.4C512,476.109,505.182,460.8,486.4,460.8z"/>
			<path d="M59.733,34.133h59.733v308.062c-19.447,3.968-34.133,21.197-34.133,41.805c0,23.526,19.14,42.667,42.667,42.667
				c23.526,0,42.667-19.14,42.667-42.667c0-20.608-14.686-37.837-34.133-41.805V34.133h102.4v308.062
				C219.486,346.163,204.8,363.392,204.8,384c0,23.526,19.14,42.667,42.667,42.667c23.526,0,42.667-19.14,42.667-42.667
				c0-20.608-14.686-37.837-34.133-41.805V34.133h86.187l32.452,308.309c-19.021,4.284-33.306,21.257-33.306,41.557
				c0,23.526,19.14,42.667,42.667,42.667c23.526,0,42.667-19.14,42.667-42.667c0-20.864-15.087-38.212-34.91-41.882L359.339,34.133
				h92.928c4.719,0,8.533-3.823,8.533-8.533c0-4.71-3.814-8.533-8.533-8.533H59.733c-4.71,0-8.533,3.823-8.533,8.533
				C51.2,30.31,55.023,34.133,59.733,34.133z M409.6,384c0,14.114-11.486,25.6-25.6,25.6s-25.6-11.486-25.6-25.6
				s11.486-25.6,25.6-25.6S409.6,369.886,409.6,384z M273.067,384c0,14.114-11.486,25.6-25.6,25.6s-25.6-11.486-25.6-25.6
				s11.486-25.6,25.6-25.6S273.067,369.886,273.067,384z M153.6,384c0,14.114-11.486,25.6-25.6,25.6s-25.6-11.486-25.6-25.6
				s11.486-25.6,25.6-25.6S153.6,369.886,153.6,384z"/>
		</g>
	</g>
</g>
</svg>